{
  "accessors": [
    {
      "bufferView": 0,
      "componentType": 5125,
      "count": 1050,
      "type": "SCALAR"
    },
    {
      "bufferView": 1,
      "componentType": 5126,
      "count": 304,
      "max": [
        0.121223971247673,
        0.999999821186066,
        0.121224485337734
      ],
      "min": [
        -0.121223606169224,
        -0.45671546459198,
        -0.121223092079163
      ],
      "type": "VEC3"
    },
    {
      "bufferView": 2,
      "componentType": 5126,
      "count": 304,
      "type": "VEC3"
    },
    {
      "bufferView": 3,
      "componentType": 5126,
      "count": 304,
      "type": "VEC2"
    },
    {
      "bufferView": 4,
      "componentType": 5125,
      "count": 3648,
      "type": "SCALAR"
    },
    {
      "bufferView": 5,
      "componentType": 5126,
      "count": 786,
      "max": [
        0.329226583242416,
        -0.34363716840744,
        0.329226583242416
      ],
      "min": [
        -0.329226583242416,
        -1.0,
        -0.329226583242416
      ],
      "type": "VEC3"
    },
    {
      "bufferView": 6,
      "componentType": 5126,
      "count": 786,
      "type": "VEC3"
    },
    {
      "bufferView": 7,
      "componentType": 5126,
      "count": 786,
      "type": "VEC2"
    }
  ],
  "asset": {
    "generator": "Substance Painter 2019.3.1",
    "version": "2.0"
  },
  "bufferViews": [
    {
      "buffer": 0,
      "byteLength": 4200,
      "target": 34963
    },
    {
      "buffer": 0,
      "byteLength": 3648,
      "byteOffset": 4200,
      "target": 34962
    },
    {
      "buffer": 0,
      "byteLength": 3648,
      "byteOffset": 7848,
      "target": 34962
    },
    {
      "buffer": 0,
      "byteLength": 2432,
      "byteOffset": 11496,
      "target": 34962
    },
    {
      "buffer": 0,
      "byteLength": 14592,
      "byteOffset": 13928,
      "target": 34963
    },
    {
      "buffer": 0,
      "byteLength": 9432,
      "byteOffset": 28520,
      "target": 34962
    },
    {
      "buffer": 0,
      "byteLength": 9432,
      "byteOffset": 37952,
      "target": 34962
    },
    {
      "buffer": 0,
      "byteLength": 6288,
      "byteOffset": 47384,
      "target": 34962
    }
  ],
  "buffers": [
    {
      "byteLength": 53672,
      "uri": "Untitled.bin"
    }
  ],
  "images": [
    {
      "uri": "bamboo_baseColor.png"
    },
    {
      "uri": "bamboo_occlusionRoughnessMetallic.png"
    },
    {
      "uri": "bamboo_normal.png"
    },
    {
      "uri": "cables_baseColor.png"
    },
    {
      "uri": "cables_occlusionRoughnessMetallic.png"
    },
    {
      "uri": "cables_normal.png"
    }
  ],
  "materials": [
    {
      "alphaMode": "BLEND",
      "name": "bamboo",
      "normalTexture": {
        "index": 2
      },
      "occlusionTexture": {
        "index": 1
      },
      "pbrMetallicRoughness": {
        "baseColorTexture": {
          "index": 0
        },
        "metallicRoughnessTexture": {
          "index": 1
        }
      }
    },
    {
      "alphaMode": "OPAQUE",
      "name": "cables",
      "normalTexture": {
        "index": 5
      },
      "occlusionTexture": {
        "index": 4
      },
      "pbrMetallicRoughness": {
        "baseColorTexture": {
          "index": 3
        },
        "metallicRoughnessTexture": {
          "index": 4
        }
      }
    }
  ],
  "meshes": [
    {
      "name": "cables",
      "primitives": [
        {
          "attributes": {
            "NORMAL": 2,
            "POSITION": 1,
            "TEXCOORD_0": 3
          },
          "indices": 0,
          "material": 1,
          "mode": 4
        }
      ]
    },
    {
      "name": "Object002",
      "primitives": [
        {
          "attributes": {
            "NORMAL": 6,
            "POSITION": 5,
            "TEXCOORD_0": 7
          },
          "indices": 4,
          "material": 0,
          "mode": 4
        }
      ]
    }
  ],
  "nodes": [
    {
      "children": [
        1,
        3
      ],
      "name": "root",
      "scale": [
        22.1456909179688,
        22.1456909179688,
        22.1456909179688
      ],
      "translation": [
        0.0,
        22.2121734619141,
        0.0
      ]
    },
    {
      "children": [
        2
      ],
      "name": "cables"
    },
    {
      "mesh": 0,
      "name": "cables"
    },
    {
      "children": [
        4
      ],
      "name": "Object002"
    },
    {
      "mesh": 1,
      "name": "Object002"
    }
  ],
  "samplers": [
    {
      "magFilter": 9729,
      "minFilter": 9985,
      "wrapS": 10497,
      "wrapT": 10497
    }
  ],
  "scene": 0,
  "scenes": [
    {
      "name": "Scene",
      "nodes": [
        0
      ]
    }
  ],
  "textures": [
    {
      "sampler": 0,
      "source": 0
    },
    {
      "sampler": 0,
      "source": 1
    },
    {
      "sampler": 0,
      "source": 2
    },
    {
      "sampler": 0,
      "source": 3
    },
    {
      "sampler": 0,
      "source": 4
    },
    {
      "sampler": 0,
      "source": 5
    }
  ]
}