{
  "accessors": [
    {
      "bufferView": 0,
      "componentType": 5125,
      "count": 30576,
      "type": "SCALAR"
    },
    {
      "bufferView": 1,
      "componentType": 5126,
      "count": 5424,
      "max": [
        1.0,
        0.0996242165565491,
        0.487401276826859
      ],
      "min": [
        -1.0,
        -0.0996242091059685,
        -0.487401276826859
      ],
      "type": "VEC3"
    },
    {
      "bufferView": 2,
      "componentType": 5126,
      "count": 5424,
      "type": "VEC3"
    },
    {
      "bufferView": 3,
      "componentType": 5126,
      "count": 5424,
      "type": "VEC2"
    }
  ],
  "asset": {
    "generator": "Substance Painter 2019.3.1",
    "version": "2.0"
  },
  "bufferViews": [
    {
      "buffer": 0,
      "byteLength": 122304,
      "target": 34963
    },
    {
      "buffer": 0,
      "byteLength": 65088,
      "byteOffset": 122304,
      "target": 34962
    },
    {
      "buffer": 0,
      "byteLength": 65088,
      "byteOffset": 187392,
      "target": 34962
    },
    {
      "buffer": 0,
      "byteLength": 43392,
      "byteOffset": 252480,
      "target": 34962
    }
  ],
  "buffers": [
    {
      "byteLength": 295872,
      "uri": "Untitled.bin"
    }
  ],
  "images": [
    {
      "uri": "18 - Default_baseColor.png"
    },
    {
      "uri": "18 - Default_occlusionRoughnessMetallic.png"
    },
    {
      "uri": "18 - Default_normal.png"
    }
  ],
  "materials": [
    {
      "alphaMode": "OPAQUE",
      "name": "18 - Default",
      "normalTexture": {
        "index": 2
      },
      "occlusionTexture": {
        "index": 1
      },
      "pbrMetallicRoughness": {
        "baseColorTexture": {
          "index": 0
        },
        "metallicRoughnessTexture": {
          "index": 1
        }
      }
    }
  ],
  "meshes": [
    {
      "name": "3d_map_comp",
      "primitives": [
        {
          "attributes": {
            "NORMAL": 2,
            "POSITION": 1,
            "TEXCOORD_0": 3
          },
          "indices": 0,
          "material": 0,
          "mode": 4
        }
      ]
    }
  ],
  "nodes": [
    {
      "children": [
        1
      ],
      "name": "root",
      "scale": [
        198141.9375,
        198141.9375,
        198141.9375
      ],
      "translation": [
        -107035.8125,
        19736.634765625,
        32855.6640625
      ]
    },
    {
      "children": [
        2
      ],
      "name": "3d_map_comp"
    },
    {
      "mesh": 0,
      "name": "3d_map_comp"
    }
  ],
  "samplers": [
    {
      "magFilter": 9729,
      "minFilter": 9985,
      "wrapS": 10497,
      "wrapT": 10497
    }
  ],
  "scene": 0,
  "scenes": [
    {
      "name": "Scene",
      "nodes": [
        0
      ]
    }
  ],
  "textures": [
    {
      "sampler": 0,
      "source": 0
    },
    {
      "sampler": 0,
      "source": 1
    },
    {
      "sampler": 0,
      "source": 2
    }
  ]
}